<mxfile host="65bd71144e" pages="2">
    <diagram id="diagramid" name="Diagram">
        <mxGraphModel dx="1187" dy="213" grid="1" gridSize="10" guides="1" tooltips="1" connect="1" arrows="1" fold="1" page="1" pageScale="1" pageWidth="827" pageHeight="1169" math="0" shadow="0">
            <root>
                <mxCell id="0"/>
                <mxCell id="1" parent="0"/>
                <mxCell id="2" value="CustomResourceHandlerServiceRole41AEC181" style="outlineConnect=0;fontColor=#B3B3B3;gradientColor=#F54749;gradientDirection=north;fillColor=#C7131F;strokeColor=#ffffff;dashed=0;verticalLabelPosition=bottom;verticalAlign=top;align=center;html=1;fontSize=12;fontStyle=0;aspect=fixed;shape=mxgraph.aws4.resourceIcon;resIcon=mxgraph.aws4.role;" parent="1" vertex="1">
                    <mxGeometry x="250" width="50" height="50" as="geometry"/>
                </mxCell>
                <mxCell id="3" value="CustomResourceHandlerE8FB56BA" style="outlineConnect=0;fontColor=#B3B3B3;gradientColor=#F78E04;gradientDirection=north;fillColor=#D05C17;strokeColor=#ffffff;dashed=0;verticalLabelPosition=bottom;verticalAlign=top;align=center;html=1;fontSize=12;fontStyle=0;aspect=fixed;shape=mxgraph.aws4.resourceIcon;resIcon=mxgraph.aws4.lambda;" parent="1" vertex="1">
                    <mxGeometry width="50" height="50" as="geometry"/>
                </mxCell>
                <mxCell id="4" value="PipelineArtifactsBucketEncryptionKey01D58D69" style="outlineConnect=0;fontColor=#B3B3B3;gradientColor=#F54749;gradientDirection=north;fillColor=#C7131F;strokeColor=#ffffff;dashed=0;verticalLabelPosition=bottom;verticalAlign=top;align=center;html=1;fontSize=12;fontStyle=0;aspect=fixed;shape=mxgraph.aws4.resourceIcon;resIcon=mxgraph.aws4.key_management_service;" parent="1" vertex="1">
                    <mxGeometry x="750" y="525" width="50" height="50" as="geometry"/>
                </mxCell>
                <mxCell id="5" value="PipelineArtifactsBucketEncryptionKeyAlias5C510EEE" style="outlineConnect=0;fontColor=#B3B3B3;gradientColor=#F54749;gradientDirection=north;fillColor=#C7131F;strokeColor=#ffffff;dashed=0;verticalLabelPosition=bottom;verticalAlign=top;align=center;html=1;fontSize=12;fontStyle=0;aspect=fixed;shape=mxgraph.aws4.resourceIcon;resIcon=mxgraph.aws4.key_management_service;" parent="1" vertex="1">
                    <mxGeometry x="500" y="150" width="50" height="50" as="geometry"/>
                </mxCell>
                <mxCell id="6" value="PipelineArtifactsBucket22248F97" style="outlineConnect=0;fontColor=#B3B3B3;gradientColor=#60A337;gradientDirection=north;fillColor=#277116;strokeColor=#ffffff;dashed=0;verticalLabelPosition=bottom;verticalAlign=top;align=center;html=1;fontSize=12;fontStyle=0;aspect=fixed;shape=mxgraph.aws4.resourceIcon;resIcon=mxgraph.aws4.s3;" parent="1" vertex="1">
                    <mxGeometry x="500" y="300" width="50" height="50" as="geometry"/>
                </mxCell>
                <mxCell id="7" value="PipelineArtifactsBucketPolicyD4F9712A" style="outlineConnect=0;fontColor=#B3B3B3;gradientColor=#60A337;gradientDirection=north;fillColor=#277116;strokeColor=#ffffff;dashed=0;verticalLabelPosition=bottom;verticalAlign=top;align=center;html=1;fontSize=12;fontStyle=0;aspect=fixed;shape=mxgraph.aws4.resourceIcon;resIcon=mxgraph.aws4.s3;" parent="1" vertex="1">
                    <mxGeometry x="250" y="250" width="50" height="50" as="geometry"/>
                </mxCell>
                <mxCell id="8" value="PipelineRoleD68726F7" style="outlineConnect=0;fontColor=#B3B3B3;gradientColor=#F54749;gradientDirection=north;fillColor=#C7131F;strokeColor=#ffffff;dashed=0;verticalLabelPosition=bottom;verticalAlign=top;align=center;html=1;fontSize=12;fontStyle=0;aspect=fixed;shape=mxgraph.aws4.resourceIcon;resIcon=mxgraph.aws4.role;" parent="1" vertex="1">
                    <mxGeometry x="500" y="400" width="50" height="50" as="geometry"/>
                </mxCell>
                <mxCell id="9" value="PipelineRoleDefaultPolicyC7A05455" style="outlineConnect=0;fontColor=#B3B3B3;gradientColor=#F54749;gradientDirection=north;fillColor=#C7131F;strokeColor=#ffffff;dashed=0;verticalLabelPosition=bottom;verticalAlign=top;align=center;html=1;fontSize=12;fontStyle=0;aspect=fixed;shape=mxgraph.aws4.resourceIcon;resIcon=mxgraph.aws4.identity_and_access_management;" parent="1" vertex="1">
                    <mxGeometry x="250" y="350" width="50" height="50" as="geometry"/>
                </mxCell>
                <mxCell id="10" value="PipelineC660917D" style="outlineConnect=0;fontColor=#B3B3B3;gradientColor=#aaaaaa;gradientDirection=north;fillColor=#aaaaaa;strokeColor=#ffffff;dashed=0;verticalLabelPosition=bottom;verticalAlign=top;align=center;html=1;fontSize=12;fontStyle=0;aspect=fixed;shape=mxgraph.aws4.resourceIcon;resIcon=mxgraph.aws4.codepipeline;" parent="1" vertex="1">
                    <mxGeometry x="250" y="550" width="50" height="50" as="geometry"/>
                </mxCell>
                <mxCell id="11" value="PipelineSourceCodePipelineActionRoleC6F9E7F5" style="outlineConnect=0;fontColor=#B3B3B3;gradientColor=#F54749;gradientDirection=north;fillColor=#C7131F;strokeColor=#ffffff;dashed=0;verticalLabelPosition=bottom;verticalAlign=top;align=center;html=1;fontSize=12;fontStyle=0;aspect=fixed;shape=mxgraph.aws4.resourceIcon;resIcon=mxgraph.aws4.role;" parent="1" vertex="1">
                    <mxGeometry x="500" y="500" width="50" height="50" as="geometry"/>
                </mxCell>
                <mxCell id="12" value="PipelineSourceCodePipelineActionRoleDefaultPolicy2D565925" style="outlineConnect=0;fontColor=#B3B3B3;gradientColor=#F54749;gradientDirection=north;fillColor=#C7131F;strokeColor=#ffffff;dashed=0;verticalLabelPosition=bottom;verticalAlign=top;align=center;html=1;fontSize=12;fontStyle=0;aspect=fixed;shape=mxgraph.aws4.resourceIcon;resIcon=mxgraph.aws4.identity_and_access_management;" parent="1" vertex="1">
                    <mxGeometry x="250" y="450" width="50" height="50" as="geometry"/>
                </mxCell>
                <mxCell id="13" value="PipelineEventsRole46BEEA7C" style="outlineConnect=0;fontColor=#B3B3B3;gradientColor=#F54749;gradientDirection=north;fillColor=#C7131F;strokeColor=#ffffff;dashed=0;verticalLabelPosition=bottom;verticalAlign=top;align=center;html=1;fontSize=12;fontStyle=0;aspect=fixed;shape=mxgraph.aws4.resourceIcon;resIcon=mxgraph.aws4.role;" parent="1" vertex="1">
                    <mxGeometry x="250" y="650" width="50" height="50" as="geometry"/>
                </mxCell>
                <mxCell id="14" value="PipelineEventsRoleDefaultPolicyFF4FCCE0" style="outlineConnect=0;fontColor=#B3B3B3;gradientColor=#F54749;gradientDirection=north;fillColor=#C7131F;strokeColor=#ffffff;dashed=0;verticalLabelPosition=bottom;verticalAlign=top;align=center;html=1;fontSize=12;fontStyle=0;aspect=fixed;shape=mxgraph.aws4.resourceIcon;resIcon=mxgraph.aws4.identity_and_access_management;" parent="1" vertex="1">
                    <mxGeometry y="525" width="50" height="50" as="geometry"/>
                </mxCell>
                <mxCell id="15" value="PipelineBuildCodePipelineActionRoleD77A08E6" style="outlineConnect=0;fontColor=#B3B3B3;gradientColor=#F54749;gradientDirection=north;fillColor=#C7131F;strokeColor=#ffffff;dashed=0;verticalLabelPosition=bottom;verticalAlign=top;align=center;html=1;fontSize=12;fontStyle=0;aspect=fixed;shape=mxgraph.aws4.resourceIcon;resIcon=mxgraph.aws4.role;" parent="1" vertex="1">
                    <mxGeometry x="500" y="650" width="50" height="50" as="geometry"/>
                </mxCell>
                <mxCell id="16" value="PipelineBuildCodePipelineActionRoleDefaultPolicyC9CB73F8" style="outlineConnect=0;fontColor=#B3B3B3;gradientColor=#F54749;gradientDirection=north;fillColor=#C7131F;strokeColor=#ffffff;dashed=0;verticalLabelPosition=bottom;verticalAlign=top;align=center;html=1;fontSize=12;fontStyle=0;aspect=fixed;shape=mxgraph.aws4.resourceIcon;resIcon=mxgraph.aws4.identity_and_access_management;" parent="1" vertex="1">
                    <mxGeometry x="250" y="750" width="50" height="50" as="geometry"/>
                </mxCell>
                <mxCell id="17" value="Repository22E53BBD" style="outlineConnect=0;fontColor=#B3B3B3;gradientColor=#aaaaaa;gradientDirection=north;fillColor=#aaaaaa;strokeColor=#ffffff;dashed=0;verticalLabelPosition=bottom;verticalAlign=top;align=center;html=1;fontSize=12;fontStyle=0;aspect=fixed;shape=mxgraph.aws4.resourceIcon;resIcon=mxgraph.aws4.codecommit;" parent="1" vertex="1">
                    <mxGeometry x="500" y="750" width="50" height="50" as="geometry"/>
                </mxCell>
                <mxCell id="18" value="RepositoryjoloawsugcodepipelinedemoPipelineStackPipeline957A6E9BmainEventRule2CB6E858" style="outlineConnect=0;fontColor=#B3B3B3;gradientColor=#F34482;gradientDirection=north;fillColor=#BC1356;strokeColor=#ffffff;dashed=0;verticalLabelPosition=bottom;verticalAlign=top;align=center;html=1;fontSize=12;fontStyle=1;aspect=fixed;shape=mxgraph.aws4.resourceIcon;resIcon=mxgraph.aws4.eventbridge;" parent="1" vertex="1">
                    <mxGeometry y="650" width="50" height="50" as="geometry"/>
                </mxCell>
                <mxCell id="19" value="BuildProjectRoleAA92C755" style="outlineConnect=0;fontColor=#B3B3B3;gradientColor=#F54749;gradientDirection=north;fillColor=#C7131F;strokeColor=#ffffff;dashed=0;verticalLabelPosition=bottom;verticalAlign=top;align=center;html=1;fontSize=12;fontStyle=0;aspect=fixed;shape=mxgraph.aws4.resourceIcon;resIcon=mxgraph.aws4.role;" parent="1" vertex="1">
                    <mxGeometry x="750" y="962.5" width="50" height="50" as="geometry"/>
                </mxCell>
                <mxCell id="20" value="BuildProjectRoleDefaultPolicy3E9F248C" style="outlineConnect=0;fontColor=#B3B3B3;gradientColor=#F54749;gradientDirection=north;fillColor=#C7131F;strokeColor=#ffffff;dashed=0;verticalLabelPosition=bottom;verticalAlign=top;align=center;html=1;fontSize=12;fontStyle=0;aspect=fixed;shape=mxgraph.aws4.resourceIcon;resIcon=mxgraph.aws4.identity_and_access_management;" parent="1" vertex="1">
                    <mxGeometry x="250" y="937.5" width="50" height="50" as="geometry"/>
                </mxCell>
                <mxCell id="21" value="BuildProject097C5DB7" style="outlineConnect=0;fontColor=#B3B3B3;gradientColor=#aaaaaa;gradientDirection=north;fillColor=#aaaaaa;strokeColor=#ffffff;dashed=0;verticalLabelPosition=bottom;verticalAlign=top;align=center;html=1;fontSize=12;fontStyle=0;aspect=fixed;shape=mxgraph.aws4.resourceIcon;resIcon=mxgraph.aws4.codebuild;" parent="1" vertex="1">
                    <mxGeometry x="500" y="900" width="50" height="50" as="geometry"/>
                </mxCell>
                <mxCell id="CustomResourceHandlerServiceRole41AEC181|CustomResourceHandlerE8FB56BA" value="Role" style="edgeStyle=orthogonalEdgeStyle;rounded=1;orthogonalLoop=1;jettySize=auto;html=1;labelBackgroundColor=none;fontColor=#EA6B66;noEdgeStyle=1;orthogonal=1;" parent="1" source="3" target="2" edge="1">
                    <mxGeometry relative="1" as="geometry">
                        <Array as="points">
                            <mxPoint x="62" y="25"/>
                            <mxPoint x="238" y="25"/>
                        </Array>
                    </mxGeometry>
                </mxCell>
                <mxCell id="PipelineArtifactsBucketEncryptionKey01D58D69|PipelineArtifactsBucketEncryptionKeyAlias5C510EEE" value="TargetKeyId" style="edgeStyle=orthogonalEdgeStyle;rounded=1;orthogonalLoop=1;jettySize=auto;html=1;labelBackgroundColor=none;fontColor=#EA6B66;noEdgeStyle=1;orthogonal=1;" parent="1" source="5" target="4" edge="1">
                    <mxGeometry relative="1" as="geometry">
                        <Array as="points">
                            <mxPoint x="562" y="175"/>
                            <mxPoint x="738" y="528.5714285714286"/>
                        </Array>
                    </mxGeometry>
                </mxCell>
                <mxCell id="PipelineArtifactsBucketEncryptionKey01D58D69|PipelineArtifactsBucket22248F97" value="KMSMasterKeyID" style="edgeStyle=orthogonalEdgeStyle;rounded=1;orthogonalLoop=1;jettySize=auto;html=1;labelBackgroundColor=none;fontColor=#EA6B66;noEdgeStyle=1;orthogonal=1;" parent="1" source="6" target="4" edge="1">
                    <mxGeometry relative="1" as="geometry">
                        <Array as="points">
                            <mxPoint x="562" y="325"/>
                            <mxPoint x="734" y="542.8571428571428"/>
                        </Array>
                    </mxGeometry>
                </mxCell>
                <mxCell id="PipelineArtifactsBucket22248F97|PipelineArtifactsBucketPolicyD4F9712A" value="Bucket&#10;Resource" style="edgeStyle=orthogonalEdgeStyle;rounded=1;orthogonalLoop=1;jettySize=auto;html=1;labelBackgroundColor=none;fontColor=#EA6B66;noEdgeStyle=1;orthogonal=1;" parent="1" source="7" target="6" edge="1">
                    <mxGeometry relative="1" as="geometry">
                        <Array as="points">
                            <mxPoint x="312" y="275"/>
                            <mxPoint x="488" y="309"/>
                        </Array>
                    </mxGeometry>
                </mxCell>
                <mxCell id="PipelineRoleD68726F7|PipelineRoleDefaultPolicyC7A05455" value="Roles" style="edgeStyle=orthogonalEdgeStyle;rounded=1;orthogonalLoop=1;jettySize=auto;html=1;labelBackgroundColor=none;fontColor=#EA6B66;noEdgeStyle=1;orthogonal=1;" parent="1" source="9" target="8" edge="1">
                    <mxGeometry relative="1" as="geometry">
                        <Array as="points">
                            <mxPoint x="316" y="375"/>
                            <mxPoint x="488" y="415"/>
                        </Array>
                    </mxGeometry>
                </mxCell>
                <mxCell id="PipelineArtifactsBucket22248F97|PipelineRoleDefaultPolicyC7A05455" value="Resource" style="edgeStyle=orthogonalEdgeStyle;rounded=1;orthogonalLoop=1;jettySize=auto;html=1;labelBackgroundColor=none;fontColor=#EA6B66;noEdgeStyle=1;orthogonal=1;" parent="1" source="9" target="6" edge="1">
                    <mxGeometry relative="1" as="geometry">
                        <Array as="points">
                            <mxPoint x="314" y="367"/>
                            <mxPoint x="486" y="317"/>
                        </Array>
                    </mxGeometry>
                </mxCell>
                <mxCell id="PipelineArtifactsBucketEncryptionKey01D58D69|PipelineRoleDefaultPolicyC7A05455" value="Resource" style="edgeStyle=orthogonalEdgeStyle;rounded=1;orthogonalLoop=1;jettySize=auto;html=1;labelBackgroundColor=none;fontColor=#EA6B66;noEdgeStyle=1;orthogonal=1;" parent="1" source="9" target="4" edge="1">
                    <mxGeometry relative="1" as="geometry">
                        <Array as="points">
                            <mxPoint x="312" y="359"/>
                            <mxPoint x="400" y="250"/>
                            <mxPoint x="650" y="250"/>
                            <mxPoint x="736" y="535.7142857142857"/>
                        </Array>
                    </mxGeometry>
                </mxCell>
                <mxCell id="PipelineSourceCodePipelineActionRoleC6F9E7F5|PipelineRoleDefaultPolicyC7A05455" value="Resource" style="edgeStyle=orthogonalEdgeStyle;rounded=1;orthogonalLoop=1;jettySize=auto;html=1;labelBackgroundColor=none;fontColor=#EA6B66;noEdgeStyle=1;orthogonal=1;" parent="1" source="9" target="11" edge="1">
                    <mxGeometry relative="1" as="geometry">
                        <Array as="points">
                            <mxPoint x="314" y="383"/>
                            <mxPoint x="488" y="511.6666666666667"/>
                        </Array>
                    </mxGeometry>
                </mxCell>
                <mxCell id="PipelineBuildCodePipelineActionRoleD77A08E6|PipelineRoleDefaultPolicyC7A05455" value="Resource" style="edgeStyle=orthogonalEdgeStyle;rounded=1;orthogonalLoop=1;jettySize=auto;html=1;labelBackgroundColor=none;fontColor=#EA6B66;noEdgeStyle=1;orthogonal=1;" parent="1" source="9" target="15" edge="1">
                    <mxGeometry relative="1" as="geometry">
                        <Array as="points">
                            <mxPoint x="312" y="391"/>
                            <mxPoint x="488" y="661.6666666666666"/>
                        </Array>
                    </mxGeometry>
                </mxCell>
                <mxCell id="PipelineArtifactsBucket22248F97|PipelineC660917D" value="Location" style="edgeStyle=orthogonalEdgeStyle;rounded=1;orthogonalLoop=1;jettySize=auto;html=1;labelBackgroundColor=none;fontColor=#EA6B66;noEdgeStyle=1;orthogonal=1;" parent="1" source="10" target="6" edge="1">
                    <mxGeometry relative="1" as="geometry">
                        <Array as="points">
                            <mxPoint x="312" y="553.5714285714286"/>
                            <mxPoint x="486" y="333"/>
                        </Array>
                    </mxGeometry>
                </mxCell>
                <mxCell id="BuildProject097C5DB7|PipelineC660917D" value="ProjectName" style="edgeStyle=orthogonalEdgeStyle;rounded=1;orthogonalLoop=1;jettySize=auto;html=1;labelBackgroundColor=none;fontColor=#EA6B66;noEdgeStyle=1;orthogonal=1;" parent="1" source="10" target="21" edge="1">
                    <mxGeometry relative="1" as="geometry">
                        <Array as="points">
                            <mxPoint x="312" y="596.4285714285712"/>
                            <mxPoint x="488" y="911.6666666666666"/>
                        </Array>
                    </mxGeometry>
                </mxCell>
                <mxCell id="PipelineArtifactsBucketEncryptionKey01D58D69|PipelineC660917D" value="Id" style="edgeStyle=orthogonalEdgeStyle;rounded=1;orthogonalLoop=1;jettySize=auto;html=1;labelBackgroundColor=none;fontColor=#EA6B66;noEdgeStyle=1;orthogonal=1;" parent="1" source="10" target="4" edge="1">
                    <mxGeometry relative="1" as="geometry">
                        <Array as="points">
                            <mxPoint x="314" y="589.2857142857141"/>
                            <mxPoint x="400" y="850"/>
                            <mxPoint x="650" y="850"/>
                            <mxPoint x="734" y="557.142857142857"/>
                        </Array>
                    </mxGeometry>
                </mxCell>
                <mxCell id="PipelineRoleD68726F7|PipelineC660917D" value="RoleArn" style="edgeStyle=orthogonalEdgeStyle;rounded=1;orthogonalLoop=1;jettySize=auto;html=1;labelBackgroundColor=none;fontColor=#EA6B66;noEdgeStyle=1;orthogonal=1;" parent="1" source="10" target="8" edge="1">
                    <mxGeometry relative="1" as="geometry">
                        <Array as="points">
                            <mxPoint x="314" y="560.7142857142857"/>
                            <mxPoint x="488" y="435"/>
                        </Array>
                    </mxGeometry>
                </mxCell>
                <mxCell id="Repository22E53BBD|PipelineC660917D" value="RepositoryName" style="edgeStyle=orthogonalEdgeStyle;rounded=1;orthogonalLoop=1;jettySize=auto;html=1;labelBackgroundColor=none;fontColor=#EA6B66;noEdgeStyle=1;orthogonal=1;" parent="1" source="10" target="17" edge="1">
                    <mxGeometry relative="1" as="geometry">
                        <Array as="points">
                            <mxPoint x="316" y="582.142857142857"/>
                            <mxPoint x="486" y="775"/>
                        </Array>
                    </mxGeometry>
                </mxCell>
                <mxCell id="PipelineSourceCodePipelineActionRoleC6F9E7F5|PipelineC660917D" value="RoleArn" style="edgeStyle=orthogonalEdgeStyle;rounded=1;orthogonalLoop=1;jettySize=auto;html=1;labelBackgroundColor=none;fontColor=#EA6B66;noEdgeStyle=1;orthogonal=1;" parent="1" source="10" target="11" edge="1">
                    <mxGeometry relative="1" as="geometry">
                        <Array as="points">
                            <mxPoint x="316" y="567.8571428571428"/>
                            <mxPoint x="488" y="538.3333333333334"/>
                        </Array>
                    </mxGeometry>
                </mxCell>
                <mxCell id="PipelineBuildCodePipelineActionRoleD77A08E6|PipelineC660917D" value="RoleArn" style="edgeStyle=orthogonalEdgeStyle;rounded=1;orthogonalLoop=1;jettySize=auto;html=1;labelBackgroundColor=none;fontColor=#EA6B66;noEdgeStyle=1;orthogonal=1;" parent="1" source="10" target="15" edge="1">
                    <mxGeometry relative="1" as="geometry">
                        <Array as="points">
                            <mxPoint x="318" y="574.9999999999999"/>
                            <mxPoint x="486" y="675"/>
                        </Array>
                    </mxGeometry>
                </mxCell>
                <mxCell id="PipelineSourceCodePipelineActionRoleC6F9E7F5|PipelineSourceCodePipelineActionRoleDefaultPolicy2D565925" value="Roles" style="edgeStyle=orthogonalEdgeStyle;rounded=1;orthogonalLoop=1;jettySize=auto;html=1;labelBackgroundColor=none;fontColor=#EA6B66;noEdgeStyle=1;orthogonal=1;" parent="1" source="12" target="11" edge="1">
                    <mxGeometry relative="1" as="geometry">
                        <Array as="points">
                            <mxPoint x="314" y="470"/>
                            <mxPoint x="486" y="525"/>
                        </Array>
                    </mxGeometry>
                </mxCell>
                <mxCell id="PipelineArtifactsBucket22248F97|PipelineSourceCodePipelineActionRoleDefaultPolicy2D565925" value="Resource" style="edgeStyle=orthogonalEdgeStyle;rounded=1;orthogonalLoop=1;jettySize=auto;html=1;labelBackgroundColor=none;fontColor=#EA6B66;noEdgeStyle=1;orthogonal=1;" parent="1" source="12" target="6" edge="1">
                    <mxGeometry relative="1" as="geometry">
                        <Array as="points">
                            <mxPoint x="312" y="460"/>
                            <mxPoint x="484" y="325"/>
                        </Array>
                    </mxGeometry>
                </mxCell>
                <mxCell id="PipelineArtifactsBucketEncryptionKey01D58D69|PipelineSourceCodePipelineActionRoleDefaultPolicy2D565925" value="Resource" style="edgeStyle=orthogonalEdgeStyle;rounded=1;orthogonalLoop=1;jettySize=auto;html=1;labelBackgroundColor=none;fontColor=#EA6B66;noEdgeStyle=1;orthogonal=1;" parent="1" source="12" target="4" edge="1">
                    <mxGeometry relative="1" as="geometry">
                        <Array as="points">
                            <mxPoint x="314" y="480"/>
                            <mxPoint x="400" y="600"/>
                            <mxPoint x="650" y="600"/>
                            <mxPoint x="732" y="549.9999999999999"/>
                        </Array>
                    </mxGeometry>
                </mxCell>
                <mxCell id="Repository22E53BBD|PipelineSourceCodePipelineActionRoleDefaultPolicy2D565925" value="Resource" style="edgeStyle=orthogonalEdgeStyle;rounded=1;orthogonalLoop=1;jettySize=auto;html=1;labelBackgroundColor=none;fontColor=#EA6B66;noEdgeStyle=1;orthogonal=1;" parent="1" source="12" target="17" edge="1">
                    <mxGeometry relative="1" as="geometry">
                        <Array as="points">
                            <mxPoint x="312" y="490"/>
                            <mxPoint x="488" y="761.6666666666666"/>
                        </Array>
                    </mxGeometry>
                </mxCell>
                <mxCell id="PipelineC660917D|PipelineEventsRoleDefaultPolicyFF4FCCE0" value="Resource" style="edgeStyle=orthogonalEdgeStyle;rounded=1;orthogonalLoop=1;jettySize=auto;html=1;labelBackgroundColor=none;fontColor=#EA6B66;noEdgeStyle=1;orthogonal=1;" parent="1" source="14" target="10" edge="1">
                    <mxGeometry relative="1" as="geometry">
                        <Array as="points">
                            <mxPoint x="62" y="540"/>
                            <mxPoint x="238" y="565"/>
                        </Array>
                    </mxGeometry>
                </mxCell>
                <mxCell id="PipelineEventsRole46BEEA7C|PipelineEventsRoleDefaultPolicyFF4FCCE0" value="Roles" style="edgeStyle=orthogonalEdgeStyle;rounded=1;orthogonalLoop=1;jettySize=auto;html=1;labelBackgroundColor=none;fontColor=#EA6B66;noEdgeStyle=1;orthogonal=1;" parent="1" source="14" target="13" edge="1">
                    <mxGeometry relative="1" as="geometry">
                        <Array as="points">
                            <mxPoint x="62" y="560"/>
                            <mxPoint x="238" y="665"/>
                        </Array>
                    </mxGeometry>
                </mxCell>
                <mxCell id="PipelineBuildCodePipelineActionRoleD77A08E6|PipelineBuildCodePipelineActionRoleDefaultPolicyC9CB73F8" value="Roles" style="edgeStyle=orthogonalEdgeStyle;rounded=1;orthogonalLoop=1;jettySize=auto;html=1;labelBackgroundColor=none;fontColor=#EA6B66;noEdgeStyle=1;orthogonal=1;" parent="1" source="16" target="15" edge="1">
                    <mxGeometry relative="1" as="geometry">
                        <Array as="points">
                            <mxPoint x="312" y="765"/>
                            <mxPoint x="488" y="688.3333333333334"/>
                        </Array>
                    </mxGeometry>
                </mxCell>
                <mxCell id="BuildProject097C5DB7|PipelineBuildCodePipelineActionRoleDefaultPolicyC9CB73F8" value="Resource" style="edgeStyle=orthogonalEdgeStyle;rounded=1;orthogonalLoop=1;jettySize=auto;html=1;labelBackgroundColor=none;fontColor=#EA6B66;noEdgeStyle=1;orthogonal=1;" parent="1" source="16" target="21" edge="1">
                    <mxGeometry relative="1" as="geometry">
                        <Array as="points">
                            <mxPoint x="312" y="785"/>
                            <mxPoint x="486" y="925"/>
                        </Array>
                    </mxGeometry>
                </mxCell>
                <mxCell id="PipelineC660917D|RepositoryjoloawsugcodepipelinedemoPipelineStackPipeline957A6E9BmainEventRule2CB6E858" value="Arn" style="edgeStyle=orthogonalEdgeStyle;rounded=1;orthogonalLoop=1;jettySize=auto;html=1;labelBackgroundColor=none;fontColor=#EA6B66;noEdgeStyle=1;orthogonal=1;" parent="1" source="18" target="10" edge="1">
                    <mxGeometry relative="1" as="geometry">
                        <Array as="points">
                            <mxPoint x="62" y="661.6666666666666"/>
                            <mxPoint x="238" y="585"/>
                        </Array>
                    </mxGeometry>
                </mxCell>
                <mxCell id="Repository22E53BBD|RepositoryjoloawsugcodepipelinedemoPipelineStackPipeline957A6E9BmainEventRule2CB6E858" value="resources" style="edgeStyle=orthogonalEdgeStyle;rounded=1;orthogonalLoop=1;jettySize=auto;html=1;labelBackgroundColor=none;fontColor=#EA6B66;noEdgeStyle=1;orthogonal=1;" parent="1" source="18" target="17" edge="1">
                    <mxGeometry relative="1" as="geometry">
                        <Array as="points">
                            <mxPoint x="62" y="688.3333333333334"/>
                            <mxPoint x="150" y="850"/>
                            <mxPoint x="400" y="850"/>
                            <mxPoint x="488" y="788.3333333333334"/>
                        </Array>
                    </mxGeometry>
                </mxCell>
                <mxCell id="PipelineEventsRole46BEEA7C|RepositoryjoloawsugcodepipelinedemoPipelineStackPipeline957A6E9BmainEventRule2CB6E858" value="RoleArn" style="edgeStyle=orthogonalEdgeStyle;rounded=1;orthogonalLoop=1;jettySize=auto;html=1;labelBackgroundColor=none;fontColor=#EA6B66;noEdgeStyle=1;orthogonal=1;" parent="1" source="18" target="13" edge="1">
                    <mxGeometry relative="1" as="geometry">
                        <Array as="points">
                            <mxPoint x="64" y="675"/>
                            <mxPoint x="238" y="685"/>
                        </Array>
                    </mxGeometry>
                </mxCell>
                <mxCell id="BuildProject097C5DB7|BuildProjectRoleDefaultPolicy3E9F248C" value="Resource" style="edgeStyle=orthogonalEdgeStyle;rounded=1;orthogonalLoop=1;jettySize=auto;html=1;labelBackgroundColor=none;fontColor=#EA6B66;noEdgeStyle=1;orthogonal=1;" parent="1" source="20" target="21" edge="1">
                    <mxGeometry relative="1" as="geometry">
                        <Array as="points">
                            <mxPoint x="314" y="957.5"/>
                            <mxPoint x="488" y="938.3333333333334"/>
                        </Array>
                    </mxGeometry>
                </mxCell>
                <mxCell id="BuildProjectRoleAA92C755|BuildProjectRoleDefaultPolicy3E9F248C" value="Roles" style="edgeStyle=orthogonalEdgeStyle;rounded=1;orthogonalLoop=1;jettySize=auto;html=1;labelBackgroundColor=none;fontColor=#EA6B66;noEdgeStyle=1;orthogonal=1;" parent="1" source="20" target="19" edge="1">
                    <mxGeometry relative="1" as="geometry">
                        <Array as="points">
                            <mxPoint x="312" y="977.5"/>
                            <mxPoint x="400" y="1050"/>
                            <mxPoint x="650" y="1050"/>
                            <mxPoint x="738" y="997.5"/>
                        </Array>
                    </mxGeometry>
                </mxCell>
                <mxCell id="PipelineArtifactsBucket22248F97|BuildProjectRoleDefaultPolicy3E9F248C" value="Resource" style="edgeStyle=orthogonalEdgeStyle;rounded=1;orthogonalLoop=1;jettySize=auto;html=1;labelBackgroundColor=none;fontColor=#EA6B66;noEdgeStyle=1;orthogonal=1;" parent="1" source="20" target="6" edge="1">
                    <mxGeometry relative="1" as="geometry">
                        <Array as="points">
                            <mxPoint x="312" y="947.5"/>
                            <mxPoint x="488" y="341"/>
                        </Array>
                    </mxGeometry>
                </mxCell>
                <mxCell id="PipelineArtifactsBucketEncryptionKey01D58D69|BuildProjectRoleDefaultPolicy3E9F248C" value="Resource" style="edgeStyle=orthogonalEdgeStyle;rounded=1;orthogonalLoop=1;jettySize=auto;html=1;labelBackgroundColor=none;fontColor=#EA6B66;noEdgeStyle=1;orthogonal=1;" parent="1" source="20" target="4" edge="1">
                    <mxGeometry relative="1" as="geometry">
                        <Array as="points">
                            <mxPoint x="314" y="967.5"/>
                            <mxPoint x="400" y="1000"/>
                            <mxPoint x="650" y="1000"/>
                            <mxPoint x="738" y="571.4285714285712"/>
                        </Array>
                    </mxGeometry>
                </mxCell>
                <mxCell id="PipelineArtifactsBucketEncryptionKey01D58D69|BuildProject097C5DB7" value="EncryptionKey" style="edgeStyle=orthogonalEdgeStyle;rounded=1;orthogonalLoop=1;jettySize=auto;html=1;labelBackgroundColor=none;fontColor=#EA6B66;noEdgeStyle=1;orthogonal=1;" parent="1" source="21" target="4" edge="1">
                    <mxGeometry relative="1" as="geometry">
                        <Array as="points">
                            <mxPoint x="562" y="915"/>
                            <mxPoint x="736" y="564.2857142857141"/>
                        </Array>
                    </mxGeometry>
                </mxCell>
                <mxCell id="BuildProjectRoleAA92C755|BuildProject097C5DB7" value="ServiceRole" style="edgeStyle=orthogonalEdgeStyle;rounded=1;orthogonalLoop=1;jettySize=auto;html=1;labelBackgroundColor=none;fontColor=#EA6B66;noEdgeStyle=1;orthogonal=1;" parent="1" source="21" target="19" edge="1">
                    <mxGeometry relative="1" as="geometry">
                        <Array as="points">
                            <mxPoint x="562" y="935"/>
                            <mxPoint x="738" y="977.5"/>
                        </Array>
                    </mxGeometry>
                </mxCell>
            </root>
        </mxGraphModel>
    </diagram>
</mxfile>